<?xml version="1.0" encoding="UTF-8"?>
<svg xmlns="http://www.w3.org/2000/svg" xmlns:xlink="http://www.w3.org/1999/xlink" width="560pt" height="400pt" viewBox="0 0 560 400" version="1.1">
<g id="surface1">
<rect x="0" y="0" width="560" height="400" style="fill:rgb(89.4104%,11.764526%,12.548828%);fill-opacity:1;stroke:none;"/>
<path style=" stroke:none;fill-rule:evenodd;fill:rgb(0%,0%,0%);fill-opacity:1;" d="M 319.351562 86.558594 C 316.183594 86.558594 314.226562 87.644531 314.226562 88.960938 C 314.226562 90.296875 316.183594 91.386719 319.351562 91.386719 C 322.5 91.386719 324.5 90.199219 324.5 88.859375 C 324.5 87.542969 322.5 86.558594 319.351562 86.558594 Z M 240.648438 86.558594 C 243.816406 86.558594 245.773438 87.644531 245.773438 88.960938 C 245.773438 90.296875 243.816406 91.386719 240.648438 91.386719 C 237.5 91.386719 235.5 90.199219 235.5 88.859375 C 235.5 87.542969 237.5 86.558594 240.648438 86.558594 Z M 288.789062 108.582031 C 289.433594 108.101562 289.640625 107.589844 288.84375 107.308594 C 288.078125 107.023438 286.292969 106.683594 285.101562 106.484375 C 288.503906 103.082031 291.394531 101.976562 297.832031 100.136719 C 296.273438 99.457031 294.742188 99.851562 290.121094 99.625 C 291.964844 97.015625 296.046875 93.046875 301.316406 91.121094 C 297.832031 88.65625 297.179688 88.484375 293.691406 85.566406 C 299.703125 85.140625 304.804688 84.007812 309.964844 82.445312 C 313.222656 80.917969 317.730469 79.640625 319.941406 79.585938 C 323.824219 79.527344 330.289062 80.832031 330.117188 83.835938 C 340.972656 81.964844 342.082031 86.445312 341.457031 90.414062 C 340.433594 88.855469 339.15625 87.988281 338.195312 87.832031 C 335.273438 87.359375 331.847656 89.921875 329.691406 92.425781 C 333.519531 93.332031 336.496094 92.738281 339.472656 92.226562 C 344.363281 91.382812 345.367188 89.125 347.804688 86.613281 C 350.074219 84.289062 352.511719 84.941406 351.746094 88.570312 C 349.285156 94.070312 340.007812 94.945312 336.011719 94.976562 C 333.007812 94.976562 329.664062 94.550781 327.820312 94.917969 C 328.453125 96.019531 330.132812 97.097656 332.640625 97.273438 C 337.945312 97.628906 341.257812 95.257812 341.257812 95.257812 C 340.976562 97.1875 338.507812 99.03125 333.660156 99.964844 C 325.695312 101.695312 319.078125 103.007812 314.695312 105.40625 C 307.925781 109.117188 301.917969 116.195312 301.230469 122.046875 C 300.371094 129.390625 303.015625 133.625 307.808594 134.886719 C 313.304688 136.359375 319.425781 131.085938 318.695312 122.585938 C 318.269531 120.628906 316.058594 115.582031 317.929688 114.535156 C 326.628906 109.746094 337.175781 104.898438 344.800781 102.007812 C 346.898438 101.210938 348.601562 104.046875 349.277344 105.152344 C 362.261719 103.566406 373.941406 94.777344 379.214844 85.453125 C 382.785156 79.074219 388.710938 85.453125 387.71875 91.460938 C 386.101562 98.179688 381 103.027344 374.847656 106.484375 C 368.554688 109.941406 360.703125 113.34375 352.738281 113.175781 C 348.429688 113.996094 348.484375 119.523438 353.617188 120.574219 C 363.707031 120.628906 371.730469 120.375 379.296875 113.0625 C 385.050781 107.816406 388.285156 114.082031 386.640625 117.625 C 383.804688 128.539062 368.214844 131.601562 352.453125 128.085938 C 346.359375 127.0625 349.828125 132.578125 351.71875 133.667969 C 358.320312 138.402344 370.113281 143.023438 380.515625 133.613281 C 385.25 129.984375 388.480469 133.046875 386.695312 138.289062 C 382.105469 152.007812 364.472656 149.117188 352.367188 142.371094 C 349.25 140.640625 346.417969 144.667969 350.214844 147.757812 C 365.265625 158.273438 372.777344 158.386719 379.582031 154.332031 C 388.085938 150.988281 388.824219 160.429688 383.777344 163.519531 C 378.164062 166.976562 363.878906 164.398438 353.417969 157.792969 C 348.910156 154.445312 348.714844 159.691406 351.546875 161.761719 C 363.992188 172.503906 368.894531 175.308594 381.851562 173.582031 C 388.285156 173.070312 388.199219 181.007812 383.125 184.097656 C 376.238281 188.320312 362.746094 181.292969 352.285156 172.617188 C 347.863281 170.265625 347.152344 174.121094 349.335938 178.683594 C 355.714844 186.761719 361.722656 191.523438 367.507812 193.734375 C 373.289062 195.917969 378.84375 195.578125 382.785156 194.21875 C 387.574219 192.574219 388.171875 197.5625 385.535156 202.097656 C 383.917969 204.820312 377.316406 205.695312 370.144531 203.175781 C 363 200.625 355.316406 194.699219 350.046875 187.726562 C 345.480469 183.699219 346.046875 189.113281 348.117188 192.882812 C 358.691406 209.582031 368.328125 215.761719 381.054688 214.710938 C 386.695312 213.777344 387.972656 218.140625 384.371094 222.195312 C 378.078125 227.4375 370.171875 227.269531 363.28125 222.109375 C 357.132812 216.183594 345.394531 203.457031 339.246094 196.625 C 334.910156 193.167969 333.519531 196.570312 334.792969 203.597656 C 335.957031 207.625 338.847656 211.847656 346.757812 214.9375 C 352.144531 218.027344 348.089844 222.28125 344.0625 222.335938 C 341.824219 222.394531 337.316406 219.785156 333.859375 215.902344 C 329.296875 210.769531 329.039062 207.339844 326.519531 199.375 C 324.164062 195.492188 319.941406 197.308594 319.941406 201.359375 C 321.953125 209.355469 323.710938 210.769531 327.792969 214.058594 C 331.734375 217.714844 325.070312 218.964844 322.832031 217.433594 C 316.339844 213.066406 313.960938 207.425781 311.804688 202.265625 C 310.246094 198.554688 305.710938 200.367188 307.808594 206.433594 C 312.824219 220.917969 321.101562 226.617188 335.558594 229.535156 C 337.035156 229.820312 337.914062 230.671875 337.402344 232.371094 C 335.476562 234.382812 333.519531 236.226562 331.589844 238.210938 C 339.019531 241.613281 350.015625 243.511719 356.167969 245.695312 C 360.816406 242.292969 364.984375 240.308594 366.96875 237.191406 C 367.507812 233.078125 372.382812 231.09375 375.640625 232.710938 C 381.054688 230.332031 384.964844 230.699219 385.5625 235.800781 C 382.359375 235.433594 379.667969 235.007812 377.457031 237.246094 C 376.492188 239.796875 373.203125 241.1875 369.945312 240.28125 C 366.515625 242.574219 363.59375 244.816406 361.523438 246.347656 C 368.242188 245.835938 373.203125 245.269531 376.71875 244.757812 C 379.949219 241.214844 383.152344 241.074219 385.734375 243.257812 C 389.757812 242.179688 393.046875 243.9375 394.265625 247.421875 C 391.175781 247.222656 388.285156 246.289062 386.328125 247.453125 C 384.824219 250.597656 380.207031 250.910156 377.144531 248.8125 C 372.664062 248.898438 363.90625 249.207031 361.894531 249.292969 C 364.925781 250.9375 368.582031 252.867188 370.398438 253.859375 C 377.3125 252.128906 381.222656 254.679688 381 259.78125 C 382.753906 262.304688 382.8125 265.960938 380.882812 267.71875 C 380.316406 265.621094 379.011719 262.957031 377.285156 261.484375 C 373.0625 262.53125 369.914062 261.226562 368.382812 256.550781 C 365.578125 254.90625 361.949219 252.835938 360.503906 251.957031 C 359.027344 251.078125 357.839844 250.058594 354.691406 251.648438 C 351.546875 253.207031 348.625 254.539062 346.785156 255.671875 C 345.933594 259.867188 341.9375 260.292969 339.242188 258.535156 C 337.628906 259.554688 336.296875 261.257812 335.417969 263.070312 C 333.773438 260.433594 334.425781 256.71875 337.316406 255.644531 C 338.25 252.414062 341.992188 251.164062 344.769531 252.582031 C 346.980469 251.535156 350.101562 249.832031 351.488281 249.179688 C 346.785156 247.734375 331.191406 244.191406 326.96875 242.632812 C 324.671875 244.785156 322.859375 246.347656 320.5625 248.273438 C 319.34375 249.011719 317.621094 248.972656 315.746094 246.578125 C 310.019531 238.269531 304.605469 223.144531 296.328125 221.0625 C 293.285156 220.296875 289.625 222.3125 290.402344 228.96875 C 291.585938 239.089844 299.160156 247.503906 308.6875 253.800781 C 313.988281 257.257812 316.226562 255.730469 320.335938 255.53125 C 325.636719 256.125 327.054688 258.703125 322.6875 262.277344 C 318.636719 264.375 314.980469 264.65625 312.03125 264.089844 C 309.480469 263.636719 306.503906 260.347656 304.378906 258.5625 C 301.996094 255.8125 298.027344 259.074219 300.71875 262.304688 C 305.625 268.144531 310.554688 271.972656 316.59375 271.886719 C 322.972656 272.765625 321.78125 276.335938 317.558594 278.066406 C 309.960938 281.210938 303.074219 275.34375 299.613281 271.460938 C 296.921875 268.542969 294.992188 268.429688 295.476562 272.964844 C 298.140625 281.210938 301.796875 284.414062 307.75 284.8125 C 312.570312 284.386719 312.625 288.101562 309.109375 290.625 C 301.0625 296.179688 295.222656 286.710938 292.5 280.984375 C 290.574219 275.796875 287.59375 278.265625 287.285156 282.515625 C 287.226562 288.214844 289.808594 292.863281 296.695312 298.703125 L 280 320.417969 L 263.304688 298.703125 C 270.191406 292.863281 272.773438 288.214844 272.714844 282.515625 C 272.40625 278.265625 269.425781 275.796875 267.5 280.984375 C 264.777344 286.710938 258.9375 296.179688 250.890625 290.625 C 247.375 288.101562 247.429688 284.386719 252.25 284.8125 C 258.203125 284.414062 261.859375 281.210938 264.523438 272.964844 C 265.007812 268.429688 263.078125 268.542969 260.386719 271.460938 C 256.925781 275.34375 250.039062 281.210938 242.441406 278.066406 C 238.21875 276.335938 237.027344 272.765625 243.40625 271.886719 C 249.445312 271.972656 254.375 268.144531 259.28125 262.304688 C 261.972656 259.074219 258.003906 255.8125 255.621094 258.5625 C 253.496094 260.347656 250.519531 263.636719 247.96875 264.089844 C 245.019531 264.65625 241.363281 264.375 237.3125 262.277344 C 232.945312 258.703125 234.363281 256.125 239.664062 255.53125 C 243.773438 255.730469 246.011719 257.257812 251.3125 253.800781 C 260.839844 247.503906 268.414062 239.089844 269.597656 228.96875 C 270.375 222.3125 266.714844 220.296875 263.671875 221.0625 C 255.394531 223.144531 249.980469 238.269531 244.253906 246.578125 C 242.378906 248.972656 240.65625 249.011719 239.4375 248.273438 C 237.140625 246.347656 235.328125 244.785156 233.03125 242.632812 C 228.808594 244.191406 213.214844 247.734375 208.511719 249.179688 C 209.898438 249.832031 213.019531 251.535156 215.230469 252.582031 C 218.007812 251.164062 221.75 252.414062 222.683594 255.644531 C 225.574219 256.722656 226.226562 260.433594 224.582031 263.070312 C 223.703125 261.257812 222.371094 259.554688 220.757812 258.535156 C 218.0625 260.292969 214.066406 259.867188 213.214844 255.671875 C 211.375 254.539062 208.453125 253.207031 205.308594 251.648438 C 202.160156 250.058594 200.972656 251.078125 199.496094 251.957031 C 198.050781 252.835938 194.421875 254.90625 191.617188 256.550781 C 190.085938 261.226562 186.9375 262.53125 182.714844 261.484375 C 180.988281 262.957031 179.683594 265.621094 179.117188 267.71875 C 177.1875 265.960938 177.246094 262.304688 179 259.78125 C 178.777344 254.679688 182.6875 252.128906 189.601562 253.859375 C 191.417969 252.867188 195.074219 250.9375 198.105469 249.292969 C 196.09375 249.207031 187.335938 248.898438 182.855469 248.8125 C 179.792969 250.910156 175.175781 250.597656 173.671875 247.453125 C 171.714844 246.289062 168.824219 247.226562 165.734375 247.421875 C 166.953125 243.9375 170.242188 242.179688 174.265625 243.257812 C 176.847656 241.074219 180.050781 241.214844 183.28125 244.757812 C 186.796875 245.269531 191.757812 245.835938 198.476562 246.347656 C 196.40625 244.816406 193.484375 242.574219 190.054688 240.28125 C 186.796875 241.1875 183.507812 239.796875 182.542969 237.246094 C 180.332031 235.007812 177.640625 235.433594 174.4375 235.800781 C 175.035156 230.699219 178.945312 230.332031 184.359375 232.710938 C 187.617188 231.09375 192.492188 233.078125 193.03125 237.191406 C 195.015625 240.308594 199.183594 242.292969 203.832031 245.695312 C 209.984375 243.511719 220.980469 241.613281 228.410156 238.210938 C 226.480469 236.226562 224.523438 234.382812 222.597656 232.371094 C 222.085938 230.671875 222.964844 229.820312 224.441406 229.535156 C 238.898438 226.617188 247.175781 220.917969 252.191406 206.433594 C 254.289062 200.367188 249.753906 198.554688 248.195312 202.265625 C 246.039062 207.425781 243.660156 213.066406 237.167969 217.433594 C 234.929688 218.964844 228.265625 217.714844 232.207031 214.058594 C 236.289062 210.769531 238.046875 209.355469 240.058594 201.359375 C 240.058594 197.308594 235.835938 195.492188 233.480469 199.375 C 230.960938 207.339844 230.703125 210.769531 226.140625 215.902344 C 222.683594 219.785156 218.175781 222.394531 215.9375 222.335938 C 211.910156 222.28125 207.855469 218.027344 213.242188 214.9375 C 221.152344 211.847656 224.042969 207.625 225.207031 203.597656 C 226.480469 196.570312 225.089844 193.167969 220.753906 196.625 C 214.605469 203.457031 202.867188 216.183594 196.71875 222.109375 C 189.828125 227.269531 181.921875 227.4375 175.628906 222.195312 C 172.027344 218.140625 173.304688 213.777344 178.945312 214.710938 C 191.671875 215.761719 201.308594 209.582031 211.882812 192.882812 C 213.953125 189.113281 214.519531 183.699219 209.953125 187.726562 C 204.683594 194.699219 197 200.625 189.855469 203.175781 C 182.683594 205.695312 176.082031 204.820312 174.464844 202.097656 C 171.828125 197.5625 172.425781 192.574219 177.214844 194.21875 C 181.15625 195.578125 186.710938 195.917969 192.492188 193.734375 C 198.277344 191.523438 204.285156 186.761719 210.664062 178.683594 C 212.847656 174.121094 212.136719 170.265625 207.714844 172.617188 C 197.253906 181.292969 183.761719 188.320312 176.875 184.097656 C 171.800781 181.007812 171.714844 173.070312 178.148438 173.582031 C 191.105469 175.308594 196.007812 172.503906 208.453125 161.761719 C 211.285156 159.691406 211.089844 154.445312 206.582031 157.792969 C 196.121094 164.398438 181.835938 166.976562 176.222656 163.519531 C 171.175781 160.429688 171.914062 150.988281 180.417969 154.332031 C 187.222656 158.386719 194.734375 158.273438 209.785156 147.757812 C 213.582031 144.667969 210.75 140.640625 207.632812 142.371094 C 195.527344 149.117188 177.894531 152.007812 173.304688 138.289062 C 171.519531 133.046875 174.75 129.984375 179.484375 133.613281 C 189.886719 143.023438 201.679688 138.402344 208.28125 133.667969 C 210.171875 132.578125 213.640625 127.0625 207.546875 128.085938 C 191.785156 131.601562 176.195312 128.539062 173.359375 117.625 C 171.714844 114.082031 174.949219 107.816406 180.703125 113.0625 C 188.269531 120.375 196.292969 120.628906 206.382812 120.574219 C 211.515625 119.523438 211.570312 113.996094 207.261719 113.175781 C 199.296875 113.34375 191.445312 109.941406 185.152344 106.484375 C 179 103.027344 173.898438 98.179688 172.28125 91.460938 C 171.289062 85.453125 177.214844 79.074219 180.785156 85.453125 C 186.058594 94.777344 197.738281 103.566406 210.722656 105.152344 C 211.398438 104.046875 213.101562 101.210938 215.199219 102.007812 C 222.824219 104.898438 233.371094 109.746094 242.070312 114.535156 C 243.941406 115.582031 241.730469 120.628906 241.304688 122.585938 C 240.574219 131.085938 246.695312 136.359375 252.191406 134.886719 C 256.984375 133.625 259.628906 129.390625 258.769531 122.046875 C 258.082031 116.195312 252.074219 109.117188 245.304688 105.40625 C 240.921875 103.007812 234.304688 101.695312 226.339844 99.964844 C 221.492188 99.03125 219.023438 97.1875 218.742188 95.257812 C 218.742188 95.257812 222.054688 97.628906 227.359375 97.273438 C 229.867188 97.097656 231.546875 96.019531 232.179688 94.917969 C 230.335938 94.550781 226.992188 94.976562 223.988281 94.976562 C 219.992188 94.945312 210.714844 94.070312 208.253906 88.570312 C 207.488281 84.941406 209.925781 84.289062 212.195312 86.613281 C 214.632812 89.125 215.636719 91.382812 220.527344 92.226562 C 223.503906 92.738281 226.480469 93.332031 230.308594 92.425781 C 228.152344 89.921875 224.726562 87.359375 221.804688 87.832031 C 220.84375 87.988281 219.566406 88.855469 218.542969 90.414062 C 217.917969 86.445312 219.027344 81.964844 229.882812 83.835938 C 229.710938 80.832031 236.175781 79.527344 240.058594 79.585938 C 242.269531 79.640625 246.777344 80.917969 250.035156 82.445312 C 255.195312 84.007812 260.296875 85.140625 266.308594 85.566406 C 262.820312 88.484375 262.167969 88.65625 258.683594 91.121094 C 263.953125 93.046875 268.035156 97.015625 269.878906 99.625 C 265.257812 99.851562 263.726562 99.457031 262.167969 100.136719 C 268.605469 101.976562 271.496094 103.082031 274.898438 106.484375 C 273.707031 106.683594 271.921875 107.023438 271.15625 107.308594 C 270.359375 107.589844 270.566406 108.101562 271.210938 108.582031 C 272.597656 109.617188 278.328125 116.125 280 117.683594 C 281.671875 116.125 287.402344 109.617188 288.789062 108.582031 Z M 288.789062 108.582031 "/>
</g>
</svg>
